<?xml version="1.0" standalone="no"?>
<!DOCTYPE svg PUBLIC "-//W3C//DTD SVG 20010904//EN"
 "http://www.w3.org/TR/2001/REC-SVG-20010904/DTD/svg10.dtd">
<svg version="1.0" xmlns="http://www.w3.org/2000/svg"
 width="840.000000pt" height="840.000000pt" viewBox="0 0 840.000000 840.000000"
 preserveAspectRatio="xMidYMid meet">
<metadata>
Created by potrace 1.11, written by Peter Selinger 2001-2013
</metadata>
<g transform="translate(0.000000,840.000000) scale(0.100000,-0.100000)"
fill="#000000" stroke="none">
<path d="M0 5666 l0 -2734 113 45 c110 44 156 76 158 111 0 17 58 -114 58
-134 1 -7 -24 -15 -56 -18 -78 -9 -170 -40 -227 -76 l-46 -30 0 -1415 0 -1415
4200 0 4200 0 0 4200 0 4200 -4200 0 -4200 0 0 -2734z m5235 398 c1 -11 20
-39 42 -61 29 -29 43 -53 48 -83 5 -30 13 -44 32 -53 25 -11 53 -54 53 -82 0
-8 4 -15 9 -15 13 0 31 -57 31 -100 0 -41 21 -100 52 -142 18 -26 19 -36 9
-160 -6 -73 -11 -140 -11 -149 0 -12 -35 -36 -107 -74 -143 -75 -381 -235
-573 -385 -85 -66 -156 -116 -158 -111 -2 6 8 44 22 85 14 41 26 86 26 100 0
24 8 49 34 106 6 14 23 37 39 52 17 18 27 38 27 58 0 17 9 39 20 50 11 11 23
34 27 51 3 16 10 32 14 35 5 3 9 15 9 27 0 13 9 30 20 40 14 12 20 29 20 62 0
24 4 64 10 87 5 24 16 77 25 118 30 141 35 161 49 193 8 18 17 70 21 117 11
159 16 182 44 208 37 35 80 52 125 49 32 -2 40 -6 41 -23z m-225 -93 c-5 -11
-10 -61 -10 -111 0 -71 -4 -101 -19 -129 -11 -20 -29 -85 -41 -146 -12 -60
-26 -128 -32 -150 -6 -22 -13 -65 -15 -95 -3 -30 -11 -62 -18 -70 -7 -8 -20
-37 -29 -64 -9 -27 -25 -60 -36 -73 -11 -14 -23 -41 -26 -62 -4 -20 -20 -52
-36 -71 -32 -38 -67 -128 -68 -175 0 -16 -10 -50 -22 -75 -11 -25 -24 -67 -29
-95 -5 -27 -15 -54 -22 -60 -7 -5 -25 -19 -39 -30 l-26 -21 26 -125 26 -126
-48 -56 c-26 -31 -57 -59 -69 -63 -27 -8 -141 -59 -182 -81 -73 -40 -108 -66
-127 -99 -11 -18 -25 -34 -31 -34 -6 0 -21 -10 -34 -22 -15 -14 -43 -24 -76
-29 -28 -3 -60 -9 -70 -14 -16 -7 -17 1 -12 121 19 432 44 773 81 1124 24 231
70 605 79 645 4 21 72 41 317 94 l86 19 7 -107 c21 -294 -31 -945 -99 -1269
-19 -88 -20 -115 -4 -110 27 9 144 443 199 738 39 211 80 516 95 702 l7 87 51
10 c135 27 203 39 229 40 24 1 26 -1 17 -18z m803 -97 c260 -58 474 -108 476
-110 6 -5 52 -246 48 -250 -1 -2 -41 -16 -87 -33 l-84 -30 -310 36 c-339 39
-340 39 -353 105 -3 15 -9 28 -14 28 -5 0 -9 19 -9 42 0 39 -26 127 -40 138
-4 3 -10 17 -13 31 -4 16 -21 35 -42 48 -27 16 -35 27 -35 49 0 15 -5 33 -12
40 -7 7 -9 12 -5 12 4 0 220 -48 480 -106z m-2918 -506 c16 -73 46 -270 42
-274 -5 -5 -300 12 -380 23 l-48 6 3 46 3 46 175 87 c96 48 181 88 187 88 7 0
15 -10 18 -22z m2974 -193 c45 -91 84 -165 87 -165 4 0 43 30 88 68 194 161
216 161 49 -1 l-118 -115 65 -41 c36 -22 75 -41 88 -41 12 0 84 11 159 25 75
14 140 22 144 18 4 -5 10 -33 14 -64 l7 -56 -44 -37 c-88 -76 -253 -141 -423
-166 -92 -13 -486 -23 -460 -11 17 7 14 10 -20 15 -64 11 -88 17 -84 20 2 2
64 44 138 95 147 100 159 103 241 71 28 -11 55 -20 60 -20 8 0 23 56 36 140
l7 41 -164 -7 c-90 -4 -162 -4 -159 -1 3 3 73 15 155 27 83 12 155 23 162 25
14 5 3 43 -41 139 -14 31 -26 60 -26 65 0 4 -11 35 -25 69 -14 34 -25 64 -25
67 0 19 18 -14 89 -160z m1976 -336 c6 -18 -95 -255 -166 -385 -41 -76 -108
-177 -109 -163 0 2 -9 56 -20 119 l-19 115 44 38 c78 67 150 207 180 352 l7
30 39 -45 c21 -25 41 -52 44 -61z m-1062 29 c-6 -7 -52 -71 -103 -143 -51 -71
-95 -132 -98 -135 -2 -3 -2 20 1 50 4 30 9 84 13 120 l6 66 91 26 c51 14 94
27 96 27 2 1 -1 -5 -6 -11z m171 -97 c82 -175 137 -368 173 -604 14 -89 18
-182 18 -452 l0 -340 -53 -185 c-29 -102 -54 -190 -57 -197 -7 -20 -54 9 -60
37 -3 14 -17 39 -31 55 -23 27 -24 30 -7 34 10 2 23 7 30 13 8 6 19 5 33 -2
26 -14 38 -5 23 18 -18 28 -135 10 -160 -24 -8 -11 -16 -14 -21 -8 -21 23 -41
106 -44 184 -3 62 -10 99 -26 131 -16 32 -22 64 -22 108 0 68 -24 167 -46 189
-8 7 -14 22 -14 32 0 10 -4 21 -9 24 -5 3 -12 34 -16 68 -11 99 -46 220 -71
244 -13 12 -28 41 -34 65 -6 24 -15 59 -20 76 -5 22 -3 70 7 137 l16 105 47 8
c43 7 53 15 120 93 40 47 84 99 99 115 17 19 34 58 46 103 10 39 22 72 25 72
4 0 28 -45 54 -99z m-4599 -25 c29 -13 31 -17 53 -128 30 -156 33 -145 -35
-140 -32 2 -60 6 -61 7 -2 2 -12 67 -21 145 l-17 141 25 -6 c14 -4 39 -12 56
-19z m4134 -303 c1 -34 -3 -64 -8 -67 -5 -3 -20 12 -35 34 l-26 40 -123 -6
-122 -6 -75 -74 -75 -74 -455 0 -455 0 85 85 c69 70 86 82 99 72 11 -9 15 -9
19 1 2 7 17 19 33 28 25 13 60 14 229 8 153 -5 200 -10 200 -20 0 -18 13 -24
39 -17 23 6 61 69 61 102 0 22 -1 22 175 46 108 14 191 37 253 69 17 9 40 16
52 16 11 0 20 5 20 10 0 6 7 10 15 10 8 0 15 6 15 14 0 7 10 20 23 29 l22 15
17 -127 c9 -69 17 -154 17 -188z m-3804 247 c66 -6 171 -14 233 -18 l113 -7
53 -207 c29 -115 51 -208 49 -208 -2 0 -58 23 -124 51 -150 63 -315 119 -436
149 l-93 22 0 120 0 121 43 -6 c23 -4 96 -11 162 -17z m-765 -125 c12 -43 24
-85 27 -91 3 -8 -10 -17 -34 -23 -50 -14 -53 -14 -53 5 0 22 32 195 35 192 2
-2 13 -39 25 -83z m3860 -5 c0 -6 -53 -9 -142 -8 -122 1 -132 3 -68 8 126 11
210 11 210 0z m74 -4 c-7 -19 -34 -29 -34 -12 0 16 10 26 26 26 8 0 11 -6 8
-14z m-84 -36 c-8 -5 -58 -9 -110 -8 -80 1 -87 2 -45 8 82 11 172 11 155 0z
m63 -40 c-3 -11 -7 -20 -9 -20 -2 0 -4 9 -4 20 0 11 4 20 9 20 5 0 7 -9 4 -20z
m615 -154 c28 -41 52 -84 52 -95 0 -12 4 -21 8 -21 9 0 32 -59 32 -83 0 -9 13
-31 28 -49 31 -35 57 -122 67 -221 5 -60 29 -131 52 -158 7 -8 13 -25 13 -36
0 -11 7 -34 15 -49 9 -17 15 -56 15 -95 0 -42 6 -78 17 -100 11 -21 20 -72 24
-134 5 -75 12 -112 30 -148 22 -45 25 -47 60 -45 46 2 63 -11 85 -68 14 -37
21 -44 44 -44 15 0 29 -3 33 -6 7 -7 -109 -349 -161 -474 -22 -52 -46 -98 -53
-102 -35 -20 -969 -311 -1309 -408 -473 -136 -1105 -290 -1487 -364 -431 -84
-950 -156 -1403 -197 l-134 -12 -156 159 c-320 328 -447 509 -825 1179 -59
105 -155 280 -213 389 l-105 199 6 136 c6 131 15 198 39 306 l11 50 29 -110
c89 -345 199 -693 308 -973 106 -275 144 -362 158 -362 9 0 11 48 6 223 -3
122 -7 230 -9 239 -7 37 15 621 29 793 21 236 23 248 44 240 52 -21 179 -46
265 -52 l99 -8 63 -170 c173 -469 363 -909 624 -1449 56 -115 104 -207 107
-204 3 3 -23 75 -57 159 -135 336 -243 665 -339 1027 -61 231 -138 580 -142
641 l-3 44 70 22 c85 27 170 61 424 170 211 91 261 107 261 83 0 -8 25 -94 55
-192 177 -566 405 -1084 688 -1558 75 -126 102 -149 93 -75 -36 273 -57 626
-63 1092 l-6 450 47 13 c25 6 58 12 72 12 14 0 44 11 67 24 32 18 70 26 162
36 66 7 147 19 180 27 33 8 79 19 103 24 24 5 74 19 110 31 76 25 89 26 768
53 l451 18 148 143 149 143 66 4 c150 8 129 15 188 -67z m-1728 -241 c0 -14
-81 -36 -187 -50 -127 -18 -166 -14 -161 13 3 18 84 83 138 111 l35 19 87 -44
c49 -24 88 -46 88 -49z m2656 -2 l40 -68 -65 -52 c-36 -29 -66 -51 -68 -50 -4
5 41 237 47 237 3 0 23 -30 46 -67z m-7250 -423 c8 -47 18 -96 21 -110 5 -21
3 -23 -8 -12 -22 20 -56 14 -80 -15 l-22 -28 6 25 c4 14 17 90 29 170 21 135
23 142 30 100 5 -25 15 -83 24 -130z m999 -509 c20 -13 57 -26 87 -30 l53 -6
45 -85 c25 -47 62 -115 83 -152 l38 -68 -48 0 c-118 1 -252 56 -352 146 -49
44 -51 48 -51 98 0 29 3 87 6 129 l7 76 49 -42 c27 -23 65 -53 83 -66z m-418
-108 c-3 -10 -5 -2 -5 17 0 19 2 27 5 18 2 -10 2 -26 0 -35z m6086 -700 c-8
-21 -40 -87 -70 -148 -213 -424 -496 -800 -860 -1140 -156 -146 -866 -772
-935 -824 -87 -65 -161 -94 -253 -99 -102 -5 -186 18 -310 89 -49 27 -209 116
-355 196 -558 307 -744 417 -1015 600 -137 94 -351 258 -450 346 l-49 44 274
6 c1197 28 2355 295 3815 881 116 46 213 84 217 85 4 1 0 -16 -9 -36z"/>
<path d="M5936 4913 c-3 -10 -10 -38 -16 -63 -6 -25 -14 -54 -17 -64 -5 -17
-1 -18 41 -13 52 7 90 25 124 57 l24 22 -72 39 c-39 22 -73 39 -75 39 -2 0 -6
-8 -9 -17z"/>
</g>
</svg>
